<svg width="32" height="32" viewBox="0 0 533 533" fill="none" xmlns="http://www.w3.org/2000/svg">
<path d="M278.859 119.292C266.843 193.383 257.001 228.67 247.16 233.763C238.34 238.129 216.994 226.002 191.174 201.749L177.882 189.382L183.506 197.141C197.182 216.058 215.333 232.793 229.392 239.463C238.34 243.584 247.926 243.949 253.295 240.19C265.054 231.944 273.746 206.842 278.603 166.705C280.52 151.305 282.821 105.104 281.67 105.104C281.414 105.104 280.137 111.531 278.859 119.292Z" fill="#FFFFFF"/>
<path d="M327.692 175.07C315.421 189.258 306.218 203.325 300.85 216.057C296.76 225.758 296.376 243.218 300.211 248.555C309.03 260.923 341.241 260.923 385.211 248.798C409.496 242.006 442.6 230.123 437.233 230.001C436.593 230.001 425.346 232.427 412.308 235.337C351.594 249.161 317.466 252.192 309.414 244.675C305.834 241.279 305.196 230.366 307.879 220.18C310.947 209.023 322.068 187.317 333.955 169.614C337.279 164.641 334.85 166.825 327.692 175.07Z" fill="#FFFFFF"/>
<path d="M127.784 230.489C179.296 247.345 199.235 255.591 209.716 264.322C214.446 268.201 215.34 269.778 215.34 273.416C215.34 275.72 214.062 280.206 212.529 283.237C209.205 289.786 185.943 312.34 171.882 322.77C158.716 332.471 158.46 332.955 168.687 327.741C179.678 322.042 190.415 315.251 200.898 307.247C222.498 290.756 230.295 273.536 221.219 262.26C209.46 247.467 165.874 231.217 113.98 222.123C104.266 220.424 95.5741 219.091 94.8072 219.212C93.9124 219.212 108.867 224.305 127.784 230.489Z" fill="#FFFFFF"/>
<path d="M349.687 281.057C305.461 286.514 286.672 301.429 297.791 322.165C304.95 335.504 328.852 357.33 359.528 378.308C379.085 391.769 408.355 409.473 408.355 407.896C408.355 407.533 393.4 395.528 374.995 380.977C326.424 342.536 305.717 322.529 303.928 311.979C302.137 301.066 323.867 290.515 365.919 282.149L377.04 279.845L367.453 279.965C362.213 279.965 354.16 280.45 349.687 281.057Z" fill="#FFFFFF"/>
<path d="M239.758 316.219C218.669 326.284 179.3 371.03 155.399 412.501C150.285 421.352 149.774 421.839 170.098 397.949C198.729 364.239 213.684 348.353 228.639 335.621C244.616 322.039 253.947 318.523 262.639 322.768C271.841 327.254 279.255 347.748 281.3 374.546C282.578 389.703 284.367 385.459 284.367 367.392C284.367 322.768 267.367 303.122 239.758 316.219Z" fill="#FFFFFF"/>
</svg>
