<svg width="2400" height="540" viewBox="0 0 2400 540" fill="none" xmlns="http://www.w3.org/2000/svg">
<mask id="mask0_7_63" style="mask-type:luminance" maskUnits="userSpaceOnUse" x="11" y="10" width="513" height="513">
<path d="M523.059 10.0581H11.0588V522.058H523.059V10.0581Z" fill="white"/>
</mask>
<g mask="url(#mask0_7_63)">
<path d="M278.859 119.292C266.843 193.383 257.001 228.67 247.16 233.763C238.34 238.129 216.994 226.002 191.174 201.749L177.882 189.382L183.506 197.141C197.182 216.058 215.333 232.793 229.392 239.463C238.34 243.584 247.926 243.949 253.295 240.19C265.054 231.944 273.746 206.842 278.603 166.705C280.52 151.305 282.821 105.104 281.67 105.104C281.414 105.104 280.137 111.531 278.859 119.292Z" fill="white"/>
<path d="M327.692 175.07C315.421 189.258 306.218 203.325 300.85 216.057C296.76 225.758 296.376 243.218 300.211 248.555C309.03 260.923 341.241 260.923 385.211 248.798C409.496 242.006 442.6 230.123 437.233 230.001C436.593 230.001 425.346 232.427 412.308 235.337C351.594 249.161 317.466 252.192 309.414 244.675C305.834 241.279 305.196 230.366 307.879 220.18C310.947 209.023 322.068 187.317 333.955 169.614C337.279 164.641 334.85 166.825 327.692 175.07Z" fill="white"/>
<path d="M127.784 230.489C179.296 247.345 199.235 255.591 209.716 264.322C214.446 268.201 215.34 269.778 215.34 273.416C215.34 275.72 214.062 280.206 212.529 283.237C209.205 289.786 185.943 312.34 171.882 322.77C158.716 332.471 158.46 332.955 168.687 327.741C179.678 322.042 190.415 315.251 200.898 307.247C222.498 290.756 230.295 273.536 221.219 262.26C209.46 247.467 165.874 231.217 113.98 222.123C104.266 220.424 95.5741 219.091 94.8072 219.212C93.9124 219.212 108.867 224.305 127.784 230.489Z" fill="white"/>
<path d="M349.687 281.057C305.461 286.514 286.672 301.429 297.791 322.165C304.95 335.504 328.852 357.33 359.528 378.308C379.085 391.769 408.355 409.473 408.355 407.896C408.355 407.533 393.4 395.528 374.995 380.977C326.424 342.536 305.717 322.529 303.928 311.979C302.137 301.066 323.867 290.515 365.919 282.149L377.04 279.845L367.453 279.965C362.213 279.965 354.16 280.45 349.687 281.057Z" fill="white"/>
<path d="M239.758 316.219C218.669 326.284 179.3 371.03 155.399 412.501C150.285 421.352 149.774 421.839 170.098 397.949C198.729 364.239 213.684 348.353 228.639 335.621C244.616 322.039 253.947 318.523 262.639 322.768C271.841 327.254 279.255 347.748 281.3 374.546C282.578 389.703 284.367 385.459 284.367 367.392C284.367 322.768 267.367 303.122 239.758 316.219Z" fill="white"/>
</g>
<path d="M2371.59 325.644L2344.04 277.786H2329.07V325.644H2309.44V206H2350.76C2359.94 206 2367.69 207.607 2374 210.82C2380.43 214.033 2385.19 218.337 2388.29 223.731C2391.49 229.126 2393.11 235.151 2393.11 241.807C2393.11 249.612 2390.81 256.726 2386.22 263.153C2381.74 269.465 2374.8 273.769 2365.39 276.065L2395 325.644H2371.59ZM2329.07 262.121H2350.76C2358.1 262.121 2363.61 260.285 2367.28 256.612C2371.07 252.939 2372.96 248.004 2372.96 241.807C2372.96 235.61 2371.13 230.789 2367.46 227.346C2363.78 223.789 2358.22 222.01 2350.76 222.01H2329.07V262.121Z" fill="white"/>
<path d="M2202.9 301.371H2152.8L2144.19 325.816H2123.71L2166.57 206H2189.3L2232.16 325.816H2211.51L2202.9 301.371ZM2197.39 285.361L2177.94 229.757L2158.31 285.361H2197.39Z" fill="white"/>
<path d="M2015.25 309.806H2055.71V325.644H1995.63V206H2015.25V309.806Z" fill="white"/>
<path d="M1880.12 309.806H1920.57V325.644H1860.49V206H1880.12V309.806Z" fill="white"/>
<path d="M1731.18 222.01V257.128H1772.49V273.138H1731.18V309.806H1777.66V325.816H1711.55V206H1777.66V222.01H1731.18Z" fill="white"/>
<path d="M1633.04 206V222.01H1601.19V325.644H1581.56V222.01H1549.55V206H1633.04Z" fill="white"/>
<path d="M1432.62 327.398C1424.59 327.398 1417.36 326.021 1410.93 323.266C1404.51 320.398 1399.46 316.38 1395.78 311.216C1392.11 306.051 1390.28 300.026 1390.28 293.14H1411.28C1411.74 298.305 1413.74 302.551 1417.3 305.879C1420.97 309.208 1426.08 310.872 1432.62 310.872C1439.39 310.872 1444.67 309.264 1448.46 306.051C1452.25 302.723 1454.14 298.477 1454.14 293.312C1454.14 289.295 1452.94 286.024 1450.53 283.5C1448.23 280.976 1445.31 279.024 1441.75 277.647C1438.31 276.27 1433.48 274.778 1427.29 273.171C1419.48 271.105 1413.11 269.039 1408.18 266.974C1403.36 264.794 1399.23 261.465 1395.78 256.989C1392.34 252.513 1390.62 246.546 1390.62 239.086C1390.62 232.2 1392.34 226.174 1395.78 221.01C1399.23 215.845 1404.05 211.886 1410.24 209.132C1416.44 206.377 1423.61 205 1431.76 205C1443.35 205 1452.82 207.927 1460.17 213.78C1467.63 219.518 1471.76 227.437 1472.56 237.536H1450.87C1450.53 233.175 1448.46 229.445 1444.67 226.346C1440.89 223.248 1435.89 221.698 1429.7 221.698C1424.07 221.698 1419.48 223.134 1415.93 226.002C1412.37 228.871 1410.59 233.002 1410.59 238.397C1410.59 242.07 1411.68 245.111 1413.86 247.521C1416.15 249.817 1419.02 251.652 1422.47 253.03C1425.91 254.407 1430.61 255.898 1436.58 257.505C1444.5 259.685 1450.93 261.867 1455.86 264.047C1460.91 266.227 1465.16 269.614 1468.6 274.204C1472.16 278.68 1473.94 284.705 1473.94 292.28C1473.94 298.363 1472.27 304.1 1468.95 309.494C1465.73 314.889 1460.97 319.251 1454.66 322.578C1448.46 325.792 1441.12 327.398 1432.62 327.398Z" fill="white"/>
<path d="M1254.13 327.398C1243 327.398 1232.73 324.816 1223.32 319.651C1214.02 314.373 1206.62 307.084 1201.11 297.788C1195.71 288.378 1193.02 277.819 1193.02 266.113C1193.02 254.407 1195.71 243.906 1201.11 234.61C1206.62 225.314 1214.02 218.083 1223.32 212.919C1232.73 207.64 1243 205 1254.13 205C1265.38 205 1275.65 207.64 1284.95 212.919C1294.36 218.083 1301.76 225.314 1307.15 234.61C1312.55 243.906 1315.24 254.407 1315.24 266.113C1315.24 277.819 1312.55 288.378 1307.15 297.788C1301.76 307.084 1294.36 314.373 1284.95 319.651C1275.65 324.816 1265.38 327.398 1254.13 327.398ZM1254.13 310.355C1262.05 310.355 1269.11 308.576 1275.31 305.019C1281.5 301.346 1286.32 296.183 1289.77 289.525C1293.32 282.753 1295.1 274.95 1295.1 266.113C1295.1 257.275 1293.32 249.529 1289.77 242.873C1286.32 236.217 1281.5 231.109 1275.31 227.552C1269.11 223.994 1262.05 222.215 1254.13 222.215C1246.21 222.215 1239.15 223.994 1232.96 227.552C1226.76 231.109 1221.88 236.217 1218.32 242.873C1214.88 249.529 1213.16 257.275 1213.16 266.113C1213.16 274.95 1214.88 282.753 1218.32 289.525C1221.88 296.183 1226.76 301.346 1232.96 305.019C1239.15 308.576 1246.21 310.355 1254.13 310.355Z" fill="white"/>
<path d="M1094.29 325.644L1066.74 277.786H1051.77V325.644H1032.14V206H1073.46C1082.64 206 1090.39 207.607 1096.7 210.82C1103.12 214.033 1107.89 218.337 1110.99 223.731C1114.2 229.126 1115.81 235.151 1115.81 241.807C1115.81 249.612 1113.51 256.726 1108.92 263.153C1104.45 269.465 1097.5 273.769 1088.09 276.065L1117.7 325.644H1094.29ZM1051.77 262.121H1073.46C1080.8 262.121 1086.31 260.285 1089.99 256.612C1093.77 252.939 1095.67 248.004 1095.67 241.807C1095.67 235.61 1093.83 230.789 1090.16 227.346C1086.48 223.789 1080.92 222.01 1073.46 222.01H1051.77V262.121Z" fill="white"/>
<path d="M874.092 206V282.262C874.092 291.328 876.445 298.158 881.15 302.748C885.97 307.338 892.627 309.634 901.119 309.634C909.727 309.634 916.384 307.338 921.088 302.748C925.909 298.158 928.319 291.328 928.319 282.262V206H947.944V281.918C947.944 291.672 945.821 299.935 941.574 306.707C937.328 313.479 931.647 318.528 924.531 321.856C917.417 325.185 909.554 326.849 900.947 326.849C892.339 326.849 884.478 325.185 877.362 321.856C870.362 318.528 864.796 313.479 860.664 306.707C856.532 299.935 854.467 291.672 854.467 281.918V206H874.092Z" fill="white"/>
<path d="M725.339 222.01V257.128H766.655V273.138H725.339V309.806H771.819V325.816H705.714V206H771.819V222.01H725.339Z" fill="white"/>
<path d="M621.297 325.816H601.672L542.625 236.47V325.816H523V206H542.625L601.672 295.173V206H621.297V325.816Z" fill="white"/>
</svg>
