<svg width="1025" height="1024" viewBox="0 0 1025 1024" fill="none" xmlns="http://www.w3.org/2000/svg">
<path d="M543.484 37.8017C512.208 230.66 486.588 322.513 460.972 335.77C438.013 347.134 382.45 315.567 315.241 252.439L280.641 220.245L295.281 240.444C330.881 289.685 378.126 333.246 414.722 350.607C438.013 361.335 462.967 362.284 476.941 352.5C507.551 331.035 530.176 265.695 542.817 161.217C547.807 121.132 553.797 0.871582 550.802 0.871582C550.136 0.871582 546.812 17.6006 543.484 37.8017Z" fill="white"/>
<path d="M670.6 182.99C638.658 219.923 614.704 256.538 600.729 289.68C590.083 314.931 589.084 360.382 599.067 374.273C622.022 406.467 705.867 406.467 820.321 374.905C883.536 357.226 969.706 326.295 955.735 325.977C954.069 325.977 924.792 332.292 890.855 339.865C732.815 375.849 643.981 383.74 623.021 364.172C613.704 355.333 612.042 326.926 619.027 300.412C627.012 271.37 655.96 214.87 686.903 168.789C695.554 155.846 689.231 161.529 670.6 182.99Z" fill="white"/>
<path d="M150.239 327.249C284.323 371.123 336.225 392.588 363.507 415.315C375.819 425.413 378.148 429.517 378.148 438.987C378.148 444.984 374.82 456.661 370.829 464.552C362.178 481.599 301.625 540.306 265.026 567.455C230.755 592.706 230.088 593.969 256.708 580.394C285.319 565.562 313.267 547.883 340.553 527.05C396.779 484.124 417.075 439.301 393.451 409.949C362.841 371.441 249.386 329.142 114.306 305.47C89.0201 301.049 66.3957 297.58 64.3994 297.893C62.0702 297.893 100.998 311.15 150.239 327.249Z" fill="white"/>
<path d="M727.853 458.877C612.732 473.082 563.824 511.904 592.768 565.88C611.403 600.602 673.618 657.415 753.469 712.022C804.375 747.061 880.565 793.143 880.565 789.039C880.565 788.094 841.637 756.845 793.729 718.968C667.299 618.907 613.398 566.828 608.741 539.366C604.08 510.959 660.643 483.497 770.104 461.718L799.052 455.721L774.099 456.035C760.458 456.035 739.494 457.297 727.853 458.877Z" fill="white"/>
<path d="M441.708 550.403C386.811 576.604 284.335 693.077 222.12 801.025C208.808 824.065 207.479 825.332 260.381 763.148C334.908 675.399 373.836 634.048 412.764 600.906C454.353 565.554 478.64 556.401 501.265 567.451C525.219 579.128 544.517 632.473 549.84 702.23C553.168 741.683 557.824 730.637 557.824 683.607C557.824 567.451 513.574 516.313 441.708 550.403Z" fill="white"/>
<path d="M1011.76 1018.58L996.692 992.406H988.5V1018.58H977.765V953.139H1000.36C1005.39 953.139 1009.63 954.018 1013.08 955.775C1016.6 957.533 1019.2 959.887 1020.89 962.838C1022.65 965.789 1023.53 969.085 1023.53 972.725C1023.53 976.995 1022.27 980.886 1019.76 984.402C1017.31 987.855 1013.51 990.209 1008.37 991.465L1024.57 1018.58H1011.76ZM988.5 983.837H1000.36C1004.38 983.837 1007.39 982.833 1009.4 980.824C1011.48 978.815 1012.51 976.115 1012.51 972.725C1012.51 969.335 1011.51 966.699 1009.5 964.815C1007.49 962.87 1004.45 961.896 1000.36 961.896H988.5V983.837Z" fill="white"/>
<path d="M919.484 1005.31H892.081L887.373 1018.68H876.167L899.615 953.139H912.045L935.492 1018.68H924.192L919.484 1005.31ZM916.471 996.55L905.83 966.134L895.095 996.55H916.471Z" fill="white"/>
<path d="M816.842 1009.92H838.971V1018.58H806.107V953.139H816.842V1009.92Z" fill="white"/>
<path d="M742.922 1009.92H765.051V1018.59H732.187V953.139H742.922V1009.92Z" fill="white"/>
<path d="M661.449 961.897V981.107H684.049V989.864H661.449V1009.92H686.874V1018.68H650.714V953.139H686.874V961.897H661.449Z" fill="white"/>
<path d="M607.765 953.139V961.896H590.344V1018.58H579.609V961.896H562.095V953.139H607.765Z" fill="white"/>
<path d="M498.137 1019.55C493.742 1019.55 489.787 1018.79 486.272 1017.29C482.756 1015.72 479.993 1013.52 477.985 1010.69C475.976 1007.87 474.972 1004.57 474.972 1000.81H486.46C486.711 1003.63 487.809 1005.95 489.756 1007.77C491.764 1009.59 494.559 1010.5 498.137 1010.5C501.84 1010.5 504.729 1009.63 506.8 1007.87C508.872 1006.05 509.908 1003.72 509.908 1000.9C509.908 998.702 509.249 996.913 507.93 995.532C506.674 994.152 505.074 993.084 503.128 992.331C501.244 991.577 498.608 990.762 495.218 989.882C490.949 988.752 487.464 987.622 484.765 986.492C482.128 985.3 479.869 983.479 477.985 981.031C476.102 978.582 475.16 975.318 475.16 971.237C475.16 967.471 476.102 964.175 477.985 961.35C479.869 958.525 482.505 956.359 485.895 954.852C489.285 953.346 493.208 952.592 497.666 952.592C504.006 952.592 509.185 954.193 513.204 957.395C517.284 960.534 519.544 964.866 519.984 970.39H508.119C507.93 968.004 506.8 965.964 504.729 964.269C502.657 962.574 499.926 961.726 496.536 961.726C493.459 961.726 490.948 962.511 489.003 964.081C487.056 965.65 486.083 967.91 486.083 970.861C486.083 972.87 486.679 974.533 487.873 975.852C489.128 977.107 490.698 978.112 492.581 978.865C494.464 979.618 497.038 980.434 500.303 981.313C504.634 982.506 508.149 983.699 510.849 984.892C513.611 986.084 515.934 987.937 517.818 990.447C519.764 992.896 520.737 996.192 520.737 1000.33C520.737 1003.66 519.826 1006.8 518.006 1009.75C516.248 1012.7 513.643 1015.09 510.19 1016.91C506.8 1018.67 502.782 1019.55 498.137 1019.55Z" fill="white"/>
<path d="M400.501 1019.55C394.411 1019.55 388.792 1018.13 383.645 1015.31C378.56 1012.42 374.511 1008.43 371.497 1003.35C368.546 998.201 367.071 992.425 367.071 986.022C367.071 979.618 368.546 973.874 371.497 968.789C374.511 963.704 378.56 959.749 383.645 956.924C388.792 954.036 394.411 952.592 400.501 952.592C406.652 952.592 412.272 954.036 417.357 956.924C422.504 959.749 426.553 963.704 429.504 968.789C432.454 973.874 433.93 979.618 433.93 986.022C433.93 992.425 432.454 998.201 429.504 1003.35C426.553 1008.43 422.504 1012.42 417.357 1015.31C412.272 1018.13 406.652 1019.55 400.501 1019.55ZM400.501 1010.22C404.832 1010.22 408.693 1009.25 412.083 1007.3C415.473 1005.29 418.11 1002.47 419.993 998.828C421.939 995.124 422.912 990.856 422.912 986.022C422.912 981.187 421.939 976.95 419.993 973.309C418.11 969.668 415.473 966.874 412.083 964.928C408.693 962.982 404.832 962.009 400.501 962.009C396.169 962.009 392.308 962.982 388.918 964.928C385.528 966.874 382.86 969.668 380.914 973.309C379.031 976.95 378.089 981.187 378.089 986.022C378.089 990.856 379.031 995.124 380.914 998.828C382.86 1002.47 385.528 1005.29 388.918 1007.3C392.308 1009.25 396.169 1010.22 400.501 1010.22Z" fill="white"/>
<path d="M313.066 1018.59L297.999 992.407H289.806V1018.59H279.071V953.139H301.671C306.693 953.139 310.931 954.018 314.384 955.776C317.899 957.533 320.505 959.888 322.2 962.838C323.957 965.789 324.837 969.085 324.837 972.726C324.837 976.995 323.581 980.887 321.07 984.403C318.622 987.855 314.823 990.209 309.676 991.465L325.872 1018.59H313.066ZM289.806 983.838H301.671C305.689 983.838 308.702 982.833 310.712 980.824C312.783 978.815 313.819 976.116 313.819 972.726C313.819 969.336 312.814 966.699 310.806 964.816C308.797 962.87 305.751 961.897 301.671 961.897H289.806V983.838Z" fill="white"/>
<path d="M192.615 953.139V994.855C192.615 999.814 193.903 1003.55 196.476 1006.06C199.113 1008.57 202.754 1009.83 207.399 1009.83C212.108 1009.83 215.749 1008.57 218.323 1006.06C220.959 1003.55 222.278 999.814 222.278 994.855V953.139H233.013V994.667C233.013 1000 231.852 1004.52 229.529 1008.23C227.206 1011.93 224.099 1014.69 220.206 1016.51C216.314 1018.33 212.013 1019.24 207.305 1019.24C202.597 1019.24 198.297 1018.33 194.404 1016.51C190.575 1014.69 187.53 1011.93 185.27 1008.23C183.01 1004.52 181.88 1000 181.88 994.667V953.139H192.615Z" fill="white"/>
<path d="M111.246 961.897V981.107H133.846V989.864H111.246V1009.92H136.671V1018.68H100.511V953.139H136.671V961.897H111.246Z" fill="white"/>
<path d="M54.3349 1018.68H43.5999L11.3006 969.806V1018.68H0.565552V953.139H11.3006L43.5999 1001.92V953.139H54.3349V1018.68Z" fill="white"/>
</svg>
